<?xml version="1.0" encoding="UTF-8"?>
<svg width="68px" height="75px" viewBox="0 0 68 75" version="1.1" xmlns="http://www.w3.org/2000/svg" xmlns:xlink="http://www.w3.org/1999/xlink">
    <!-- Generator: Sketch 61.2 (89653) - https://sketch.com -->
    <title>noun_Dress code_1714297</title>
    <desc>Created with Sketch.</desc>
    <g id="Page-1" stroke="none" stroke-width="1" fill="none" fill-rule="evenodd" opacity="0.75">
        <g id="ðŸ HOME" transform="translate(-1173.000000, -3302.000000)" fill="#64B5BF" fill-rule="nonzero">
            <g id="Group-12" transform="translate(0.000000, 3273.000000)">
                <g id="noun_Dress-code_1714297" transform="translate(1173.000000, 29.000000)">
                    <g id="Group">
                        <g>
                            <path d="M29.3455172,35.15625 C28.6971724,35.15625 28.1672414,34.63125 28.1672414,33.984375 C28.1672414,33.3375 28.6854483,32.8125 29.3326207,32.8125 L29.3455172,32.8125 C29.9926897,32.8125 30.517931,33.3375 30.517931,33.984375 C30.517931,34.63125 29.9926897,35.15625 29.3455172,35.15625 Z" id="Path"></path>
                            <path d="M29.3455172,45.703125 C28.6971724,45.703125 28.1672414,45.1792969 28.1672414,44.53125 C28.1672414,43.8832031 28.6854483,43.359375 29.3326207,43.359375 L29.3455172,43.359375 C29.9926897,43.359375 30.517931,43.8832031 30.517931,44.53125 C30.517931,45.1792969 29.9926897,45.703125 29.3455172,45.703125 Z" id="Path"></path>
                            <path d="M29.3455172,56.25 C28.6971724,56.25 28.1672414,55.7261719 28.1672414,55.078125 C28.1672414,54.4300781 28.6854483,53.90625 29.3326207,53.90625 L29.3455172,53.90625 C29.9926897,53.90625 30.517931,54.4300781 30.517931,55.078125 C30.517931,55.7261719 29.9926897,56.25 29.3455172,56.25 Z" id="Path"></path>
                            <path d="M41.1317931,30.4207031 C40.9582759,30.4207031 40.7812414,30.3820312 40.615931,30.3 L28.7933103,24.4886719 C28.2129655,24.2027344 27.9737931,23.5007812 28.2586897,22.9195312 C28.5447586,22.3382812 29.2505517,22.1003906 29.8285517,22.3851562 L41.6511724,28.1964844 C42.2315172,28.4824219 42.4706897,29.184375 42.1857931,29.765625 C41.9817931,30.1804687 41.5644138,30.4207031 41.1317931,30.4207031 Z" id="Path"></path>
                            <path d="M41.1329655,30.4207031 C40.9969655,30.4207031 40.8586207,30.3960937 40.7226207,30.3457031 C40.1153103,30.1195312 39.8081379,29.4445313 40.0344138,28.8375 C40.0801379,28.7179688 44.5517241,16.6957031 44.5517241,11.71875 C44.5517241,11.071875 45.0757931,10.546875 45.7241379,10.546875 C46.3724828,10.546875 46.8965517,11.071875 46.8965517,11.71875 C46.8965517,17.1175781 42.4226207,29.1492188 42.2315172,29.6589844 C42.0544828,30.1300781 41.6077931,30.4207031 41.1329655,30.4207031 Z" id="Path"></path>
                            <path d="M17.4888966,30.4207031 C17.0562759,30.4207031 16.6388966,30.1804687 16.436069,29.765625 C16.1511724,29.184375 16.3903448,28.4824219 16.9706897,28.1964844 L28.7933103,22.3851562 C29.376,22.1003906 30.0782759,22.3394531 30.3631724,22.9195312 C30.648069,23.5007812 30.4088966,24.2027344 29.8285517,24.4886719 L18.005931,30.3 C17.8394483,30.3820312 17.6612414,30.4207031 17.4888966,30.4207031 Z" id="Path"></path>
                            <path d="M17.4877241,30.4207031 C17.0128966,30.4207031 16.5662069,30.1289062 16.3891724,29.6589844 C16.198069,29.1492187 11.7241379,17.1175781 11.7241379,11.71875 C11.7241379,11.071875 12.2482069,10.546875 12.8965517,10.546875 C13.5448966,10.546875 14.0689655,11.071875 14.0689655,11.71875 C14.0689655,16.6957031 18.5405517,28.7179688 18.5862759,28.8386719 C18.8125517,29.4457031 18.5053793,30.1207031 17.898069,30.346875 C17.762069,30.3972656 17.6237241,30.4207031 17.4877241,30.4207031 Z" id="Path"></path>
                            <path d="M1.17241379,16.40625 C0.667103448,16.40625 0.201655172,16.078125 0.0492413793,15.5707031 C-0.136,14.9507813 0.215724138,14.2980469 0.835931034,14.1117188 L12.560069,10.5960938 C13.1802759,10.4132813 13.8344828,10.7625 14.0197241,11.3824219 C14.2049655,12.0023438 13.8532414,12.6550781 13.2330345,12.8414063 L1.50889655,16.3570313 C1.39634483,16.3898438 1.2837931,16.40625 1.17241379,16.40625 Z" id="Path"></path>
                            <path d="M1.17241379,63.28125 C0.524068966,63.28125 0,62.7574219 0,62.109375 L0,15.234375 C0,14.5875 0.524068966,14.0625 1.17241379,14.0625 C1.82075862,14.0625 2.34482759,14.5875 2.34482759,15.234375 L2.34482759,62.109375 C2.34482759,62.7574219 1.82075862,63.28125 1.17241379,63.28125 Z" id="Path"></path>
                            <path d="M3.51724138,65.625 C1.57806897,65.625 0,64.0476562 0,62.109375 C0,61.4613281 0.524068966,60.9375 1.17241379,60.9375 C1.82075862,60.9375 2.34482759,61.4613281 2.34482759,62.109375 C2.34482759,62.75625 2.87006897,63.28125 3.51724138,63.28125 C4.16558621,63.28125 4.68965517,63.8050781 4.68965517,64.453125 C4.68965517,65.1011719 4.16558621,65.625 3.51724138,65.625 Z" id="Path"></path>
                            <path d="M57.4482759,16.40625 C57.3368966,16.40625 57.2243448,16.3898438 57.1117931,16.3570312 L45.3876552,12.8414063 C44.7674483,12.6550781 44.4157241,12.0023438 44.6009655,11.3824219 C44.7862069,10.7625 45.4368966,10.4097656 46.0606207,10.5960938 L57.7847586,14.1117188 C58.4049655,14.2980469 58.7566897,14.9507813 58.5714483,15.5707031 C58.4190345,16.0792969 57.9535862,16.40625 57.4482759,16.40625 Z" id="Path"></path>
                            <path d="M57.4482759,56.25 C56.799931,56.25 56.2758621,55.7261719 56.2758621,55.078125 L56.2758621,15.234375 C56.2758621,14.5875 56.799931,14.0625 57.4482759,14.0625 C58.0966207,14.0625 58.6206897,14.5875 58.6206897,15.234375 L58.6206897,55.078125 C58.6206897,55.7261719 58.0966207,56.25 57.4482759,56.25 Z" id="Path"></path>
                            <path d="M48.0689655,65.625 L3.51724138,65.625 C2.86889655,65.625 2.34482759,65.1011719 2.34482759,64.453125 C2.34482759,63.8050781 2.86889655,63.28125 3.51724138,63.28125 L48.0689655,63.28125 C48.7173103,63.28125 49.2413793,63.8050781 49.2413793,64.453125 C49.2413793,65.1011719 48.7173103,65.625 48.0689655,65.625 Z" id="Path"></path>
                            <path d="M29.3103448,24.609375 C28.8050345,24.609375 28.3395862,24.28125 28.1871724,23.7738281 C28.001931,23.1539062 28.3536552,22.5011719 28.9738621,22.3148437 C40.12,18.9726562 44.661931,11.2148437 44.7064828,11.1375 C45.0265517,10.575 45.7428966,10.3792969 46.3056552,10.7015625 C46.8672414,11.0226562 47.0630345,11.7386719 46.7417931,12.3 C46.5413103,12.6515625 41.6816552,20.9507812 29.6468276,24.5601562 C29.5342759,24.5929688 29.4217241,24.609375 29.3103448,24.609375 Z" id="Path"></path>
                            <path d="M29.3103448,24.609375 C29.1989655,24.609375 29.0864138,24.5929688 28.9738621,24.5601562 C16.9390345,20.9507812 12.0793793,12.6515625 11.8788966,12.3 C11.5576552,11.7386719 11.7534483,11.0226562 12.3150345,10.7015625 C12.8766207,10.3804687 13.5929655,10.5761719 13.9130345,11.1351562 L13.9130345,11.1351562 C13.9575862,11.2136719 18.5522759,18.9878906 29.6468276,22.3148437 C30.2670345,22.5011719 30.6187586,23.1539062 30.4335172,23.7738281 C30.2811034,24.2824219 29.8156552,24.609375 29.3103448,24.609375 Z" id="Path"></path>
                            <path d="M12.8965517,12.890625 C12.2482069,12.890625 11.7241379,12.365625 11.7241379,11.71875 C11.7241379,5.25703125 16.9835862,0 23.4482759,0 C24.0966207,0 24.6206897,0.525 24.6206897,1.171875 C24.6206897,1.81875 24.0966207,2.34375 23.4482759,2.34375 C18.2767586,2.34375 14.0689655,6.54960938 14.0689655,11.71875 C14.0689655,12.365625 13.5448966,12.890625 12.8965517,12.890625 Z" id="Path"></path>
                            <path d="M45.7241379,12.890625 C45.0757931,12.890625 44.5517241,12.365625 44.5517241,11.71875 C44.5517241,6.54960938 40.343931,2.34375 35.1724138,2.34375 C34.524069,2.34375 34,1.81875 34,1.171875 C34,0.525 34.524069,0 35.1724138,0 C41.6371034,0 46.8965517,5.25703125 46.8965517,11.71875 C46.8965517,12.365625 46.3724828,12.890625 45.7241379,12.890625 Z" id="Path"></path>
                            <path d="M35.1724138,2.34375 L23.4482759,2.34375 C22.799931,2.34375 22.2758621,1.81875 22.2758621,1.171875 C22.2758621,0.525 22.799931,0 23.4482759,0 L35.1724138,0 C35.8207586,0 36.3448276,0.525 36.3448276,1.171875 C36.3448276,1.81875 35.8207586,2.34375 35.1724138,2.34375 Z" id="Path"></path>
                            <path d="M13.5601379,13.8855469 C13.4241379,13.8855469 13.2857931,13.8609375 13.1497931,13.8117188 C12.5424828,13.5855469 12.2353103,12.9105469 12.4615862,12.3035156 C14.1627586,7.7484375 18.578069,4.6875 23.4482759,4.6875 C24.0966207,4.6875 24.6206897,5.2125 24.6206897,5.859375 C24.6206897,6.50625 24.0966207,7.03125 23.4482759,7.03125 C19.5511724,7.03125 16.0186897,9.47929687 14.6586897,13.1226563 C14.484,13.5949219 14.0361379,13.8855469 13.5601379,13.8855469 Z" id="Path"></path>
                            <path d="M45.0628966,13.8902344 C44.588069,13.8902344 44.1402069,13.5984375 43.9643448,13.1273438 C42.6043448,9.48046875 39.0706897,7.03125 35.1724138,7.03125 C34.524069,7.03125 34,6.50625 34,5.859375 C34,5.2125 34.524069,4.6875 35.1724138,4.6875 C40.0449655,4.6875 44.4602759,7.74960937 46.1602759,12.3082031 C46.3865517,12.9140625 46.0793793,13.5890625 45.472069,13.8152344 C45.3372414,13.8667969 45.1988966,13.8902344 45.0628966,13.8902344 Z" id="Path"></path>
                            <path d="M35.1724138,7.03125 L23.4482759,7.03125 C22.799931,7.03125 22.2758621,6.50625 22.2758621,5.859375 C22.2758621,5.2125 22.799931,4.6875 23.4482759,4.6875 L35.1724138,4.6875 C35.8207586,4.6875 36.3448276,5.2125 36.3448276,5.859375 C36.3448276,6.50625 35.8207586,7.03125 35.1724138,7.03125 Z" id="Path"></path>
                            <path d="M25.7931034,10.546875 C25.1447586,10.546875 24.6206897,10.021875 24.6206897,9.375 L24.6206897,5.859375 C24.6206897,5.2125 25.1447586,4.6875 25.7931034,4.6875 C26.4414483,4.6875 26.9655172,5.2125 26.9655172,5.859375 L26.9655172,9.375 C26.9655172,10.021875 26.4414483,10.546875 25.7931034,10.546875 Z" id="Path"></path>
                            <path d="M32.8275862,10.546875 L25.7931034,10.546875 C25.1447586,10.546875 24.6206897,10.021875 24.6206897,9.375 C24.6206897,8.728125 25.1447586,8.203125 25.7931034,8.203125 L32.8275862,8.203125 C33.475931,8.203125 34,8.728125 34,9.375 C34,10.021875 33.475931,10.546875 32.8275862,10.546875 Z" id="Path"></path>
                            <path d="M32.8275862,10.546875 C32.1792414,10.546875 31.6551724,10.021875 31.6551724,9.375 L31.6551724,5.859375 C31.6551724,5.2125 32.1792414,4.6875 32.8275862,4.6875 C33.475931,4.6875 34,5.2125 34,5.859375 L34,9.375 C34,10.021875 33.475931,10.546875 32.8275862,10.546875 Z" id="Path"></path>
                            <path d="M32.8768276,65.625 C32.2284828,65.625 31.7044138,65.1011719 31.7044138,64.453125 L31.7044138,25.1660156 C31.7044138,24.5191406 32.2284828,23.9941406 32.8768276,23.9941406 C33.5251724,23.9941406 34.0492414,24.5191406 34.0492414,25.1660156 L34.0492414,64.453125 C34.0492414,65.1011719 33.5251724,65.625 32.8768276,65.625 Z" id="Path"></path>
                            <path d="M25.7931034,65.625 C25.1447586,65.625 24.6206897,65.1011719 24.6206897,64.453125 L24.6206897,25.1660156 C24.6206897,24.5191406 25.1447586,23.9941406 25.7931034,23.9941406 C26.4414483,23.9941406 26.9655172,24.5191406 26.9655172,25.1660156 L26.9655172,64.453125 C26.9655172,65.1011719 26.4414483,65.625 25.7931034,65.625 Z" id="Path"></path>
                            <path d="M11.7241379,46.875 L1.17241379,46.875 C0.524068966,46.875 0,46.3511719 0,45.703125 C0,45.0550781 0.524068966,44.53125 1.17241379,44.53125 L11.7241379,44.53125 C12.3724828,44.53125 12.8965517,45.0550781 12.8965517,45.703125 C12.8965517,46.3511719 12.3724828,46.875 11.7241379,46.875 Z" id="Path"></path>
                            <path d="M11.7241379,50.390625 L1.17241379,50.390625 C0.524068966,50.390625 0,49.8667969 0,49.21875 C0,48.5707031 0.524068966,48.046875 1.17241379,48.046875 L11.7241379,48.046875 C12.3724828,48.046875 12.8965517,48.5707031 12.8965517,49.21875 C12.8965517,49.8667969 12.3724828,50.390625 11.7241379,50.390625 Z" id="Path"></path>
                            <path d="M11.7241379,65.625 C11.0757931,65.625 10.5517241,65.1011719 10.5517241,64.453125 L10.5517241,45.703125 C10.5517241,45.0550781 11.0757931,44.53125 11.7241379,44.53125 C12.3724828,44.53125 12.8965517,45.0550781 12.8965517,45.703125 L12.8965517,64.453125 C12.8965517,65.1011719 12.3724828,65.625 11.7241379,65.625 Z" id="Path"></path>
                            <path d="M57.4482759,75 C51.6295862,75 46.8965517,70.2691406 46.8965517,64.453125 C46.8965517,58.6371094 51.6295862,53.90625 57.4482759,53.90625 C63.2669655,53.90625 68,58.6371094 68,64.453125 C68,70.2691406 63.2669655,75 57.4482759,75 Z M57.4482759,56.25 C52.923931,56.25 49.2413793,59.9308594 49.2413793,64.453125 C49.2413793,68.9753906 52.923931,72.65625 57.4482759,72.65625 C61.9726207,72.65625 65.6551724,68.9753906 65.6551724,64.453125 C65.6551724,59.9308594 61.9726207,56.25 57.4482759,56.25 Z" id="Shape"></path>
                            <g transform="translate(52.758621, 60.937500)" id="Path">
                                <path d="M3.51724138,8.203125 C3.21710345,8.203125 2.91696552,8.08828125 2.68834483,7.85976562 L0.343517241,5.51601562 C-0.114896552,5.0578125 -0.114896552,4.3171875 0.343517241,3.85898437 C0.801931034,3.40078125 1.54289655,3.40078125 2.00131034,3.85898437 L4.34613793,6.20273437 C4.80455172,6.6609375 4.80455172,7.4015625 4.34613793,7.85976562 C4.11751724,8.08828125 3.81737931,8.203125 3.51724138,8.203125 Z"></path>
                                <path d="M3.51724138,8.203125 C3.21710345,8.203125 2.91696552,8.08828125 2.68834483,7.85976563 C2.22993103,7.4015625 2.22993103,6.6609375 2.68834483,6.20273437 L8.55041379,0.343359375 C9.00882759,-0.11484375 9.7497931,-0.11484375 10.2082069,0.343359375 C10.6666207,0.8015625 10.6666207,1.5421875 10.2082069,2.00039063 L4.34613793,7.85976563 C4.11751724,8.08828125 3.81737931,8.203125 3.51724138,8.203125 Z"></path>
                            </g>
                        </g>
                    </g>
                </g>
            </g>
        </g>
    </g>
</svg>