<?xml version="1.0" encoding="UTF-8"?>
<svg width="68px" height="66px" viewBox="0 0 68 66" version="1.1" xmlns="http://www.w3.org/2000/svg" xmlns:xlink="http://www.w3.org/1999/xlink">
    <!-- Generator: Sketch 61.2 (89653) - https://sketch.com -->
    <title>Group</title>
    <desc>Created with Sketch.</desc>
    <g id="Page-1" stroke="none" stroke-width="1" fill="none" fill-rule="evenodd" opacity="0.748535156">
        <g id="ðŸ HOME" transform="translate(-229.000000, -3309.000000)" fill="#64B5BF" fill-rule="nonzero">
            <g id="Group-12" transform="translate(0.000000, 3273.000000)">
                <g id="noun_Contacts_2989748" transform="translate(229.000000, 36.000000)">
                    <g id="Group">
                        <path d="M62.5335065,0 L12.5314286,0 C9.52,0 7.06493506,2.47945946 7.06493506,5.52081081 L7.06493506,9.81081081 L4.41558442,9.81081081 C1.97818182,9.81081081 0,11.8086486 0,14.2702703 C0,16.7318919 1.97818182,18.7297297 4.41558442,18.7297297 L7.06493506,18.7297297 L7.06493506,28.5405405 L4.41558442,28.5405405 C1.97818182,28.5405405 0,30.5383784 0,33 C0,35.4616216 1.97818182,37.4594595 4.41558442,37.4594595 L7.06493506,37.4594595 L7.06493506,46.3783784 L4.41558442,46.3783784 C1.97818182,46.3783784 0,48.3762162 0,50.8378378 C0,53.2994595 1.97818182,55.2972973 4.41558442,55.2972973 L7.06493506,55.2972973 L7.06493506,60.4791892 C7.06493506,63.5205405 9.52,66 12.5314286,66 L62.5335065,66 C65.5449351,66 68,63.5205405 68,60.4791892 L68,5.52081081 C68,2.47945946 65.5449351,0 62.5335065,0 Z M4.41558442,15.1621622 C3.9387013,15.1621622 3.53246753,14.7518919 3.53246753,14.2702703 C3.53246753,13.7886486 3.9387013,13.3783784 4.41558442,13.3783784 L8.23948052,13.3783784 C8.42493506,13.4497297 8.62805195,13.4854054 8.83116883,13.4854054 C9.03428571,13.4854054 9.2374026,13.4408108 9.42285714,13.3783784 L13.2467532,13.3783784 C13.7236364,13.3783784 14.1298701,13.7886486 14.1298701,14.2702703 C14.1298701,14.7518919 13.7236364,15.1621622 13.2467532,15.1621622 L9.42285714,15.1621622 C9.2374026,15.0908108 9.03428571,15.0551351 8.83116883,15.0551351 C8.62805195,15.0551351 8.42493506,15.0997297 8.23948052,15.1621622 L4.41558442,15.1621622 Z M4.41558442,33.8918919 C3.9387013,33.8918919 3.53246753,33.4816216 3.53246753,33 C3.53246753,32.5183784 3.9387013,32.1081081 4.41558442,32.1081081 L8.23948052,32.1081081 C8.42493506,32.1794595 8.62805195,32.2151351 8.83116883,32.2151351 C9.03428571,32.2151351 9.2374026,32.1705405 9.42285714,32.1081081 L13.2467532,32.1081081 C13.7236364,32.1081081 14.1298701,32.5183784 14.1298701,33 C14.1298701,33.4816216 13.7236364,33.8918919 13.2467532,33.8918919 L4.41558442,33.8918919 Z M4.41558442,51.7297297 C3.9387013,51.7297297 3.53246753,51.3194595 3.53246753,50.8378378 C3.53246753,50.3562162 3.9387013,49.9459459 4.41558442,49.9459459 L13.2467532,49.9459459 C13.7236364,49.9459459 14.1298701,50.3562162 14.1298701,50.8378378 C14.1298701,51.3194595 13.7236364,51.7297297 13.2467532,51.7297297 L4.41558442,51.7297297 Z M20.3116883,62.4324324 L12.5314286,62.4324324 C11.4628571,62.4324324 10.5974026,61.5583784 10.5974026,60.4791892 L10.5974026,55.2972973 L13.2467532,55.2972973 C15.6841558,55.2972973 17.6623377,53.2994595 17.6623377,50.8378378 C17.6623377,48.3762162 15.6841558,46.3783784 13.2467532,46.3783784 L10.5974026,46.3783784 L10.5974026,37.4594595 L13.2467532,37.4594595 C15.6841558,37.4594595 17.6623377,35.4616216 17.6623377,33 C17.6623377,30.5383784 15.6841558,28.5405405 13.2467532,28.5405405 L10.5974026,28.5405405 L10.5974026,18.7297297 L13.2467532,18.7297297 C15.6841558,18.7297297 17.6623377,16.7318919 17.6623377,14.2702703 C17.6623377,11.8086486 15.6841558,9.81081081 13.2467532,9.81081081 L10.5974026,9.81081081 L10.5974026,5.52081081 C10.5974026,4.44162162 11.4628571,3.56756757 12.5314286,3.56756757 L20.3116883,3.56756757 L20.3116883,62.4324324 Z M64.4675325,60.4791892 C64.4675325,61.5583784 63.6020779,62.4324324 62.5335065,62.4324324 L23.8441558,62.4324324 L23.8441558,3.56756757 L62.5335065,3.56756757 C63.6020779,3.56756757 64.4675325,4.44162162 64.4675325,5.52081081 L64.4675325,60.4791892 Z" id="Shape"></path>
                        <path d="M54.1527273,36.2464865 C52.4571429,34.6589189 50.3464935,34.6767568 48.6332468,36.3 C48.3418182,36.5764865 48.0592208,36.8618919 47.7854545,37.1562162 C47.5293506,37.4237838 47.2820779,37.6735135 47.0348052,37.9054054 C44.147013,36.2643243 41.7890909,33.9097297 40.014026,30.8862162 C40.7116883,30.2262162 41.321039,29.5840541 41.8597403,28.9418919 C43.1932468,27.3721622 43.1755844,25.3118919 41.8155844,23.8224324 C40.5085714,22.3864865 39.1485714,21.0040541 37.7709091,19.7108108 C36.2077922,18.2391892 34.1677922,18.2213514 32.587013,19.6662162 L32.1631169,20.0497297 C30.8649351,21.2181081 29.3901299,22.547027 28.5511688,24.4913514 L28.454026,24.7767568 C28.1890909,25.8381081 28.1802597,26.9262162 28.4363636,28.1927027 L28.4628571,28.3175676 C29.4166234,31.8405405 30.9709091,35.0691892 33.0727273,37.9054054 C36.8612987,43.007027 41.5506494,46.6727027 47.0171429,48.7954054 C47.6088312,49.0272973 48.1916883,49.1967568 48.7480519,49.3662162 C48.9864935,49.4375676 49.2249351,49.5089189 49.4722078,49.5891892 L49.6576623,49.6337838 C50.267013,49.7586486 50.841039,49.8210811 51.3797403,49.8210811 C51.9537662,49.8210811 52.4924675,49.7497297 53.0311688,49.6159459 L53.2519481,49.5445946 C55.0181818,48.84 56.1750649,47.5467568 57.1906494,46.4051351 C57.4467532,46.1197297 57.7028571,45.8343243 57.9677922,45.5578378 C59.5309091,43.9345946 59.5397403,41.802973 57.9766234,40.1172973 C56.7755844,38.7972973 55.4862338,37.4951351 54.1527273,36.2464865 Z M55.4597403,43.0516216 C55.1594805,43.3548649 54.8768831,43.6759459 54.5942857,43.997027 C53.7553247,44.9335135 53.0223377,45.7540541 52.0774026,46.1643243 C51.5916883,46.2713514 51.0971429,46.2624324 50.4436364,46.1375676 C50.214026,46.0662162 49.9844156,45.9948649 49.7636364,45.9324324 C49.2425974,45.7808108 48.7568831,45.6291892 48.3064935,45.4597297 C43.4051948,43.5510811 39.3516883,40.3759459 35.9163636,35.7559459 C34.0883117,33.2943243 32.7371429,30.4937838 31.8981818,27.4345946 C31.7745455,26.7835135 31.7568831,26.2751351 31.8628571,25.7935135 C32.4192208,24.6251351 33.4436364,23.6975676 34.5298701,22.7164865 L34.9714286,22.3151351 C35.0862338,22.2081081 35.1657143,22.1724324 35.1480519,22.1635135 C35.1745455,22.1724324 35.2628571,22.217027 35.3776623,22.332973 C36.6846753,23.5637838 37.9828571,24.8837838 39.2280519,26.2483784 C39.3075325,26.3375676 39.3251948,26.3910811 39.3251948,26.3910811 C39.3251948,26.4178378 39.2898701,26.4981081 39.1838961,26.6318919 C38.6363636,27.282973 38.0005195,27.9340541 37.2322078,28.6386486 C36.1724675,29.6197297 35.9605195,30.8951351 36.6493506,32.1437838 C38.8924675,36.2018919 42.0187013,39.3056757 45.9309091,41.3659459 C46.9023377,41.8832432 48.2358442,41.5621622 48.9688312,40.9556757 C49.4722078,40.5364865 49.9049351,40.0816216 50.32,39.6535135 C50.5584416,39.4037838 50.7968831,39.1540541 51.052987,38.9132432 C51.2649351,38.717027 51.4062338,38.6545946 51.4238961,38.6545946 C51.4503896,38.6545946 51.5651948,38.7081081 51.7506494,38.8775676 C53.0223377,40.0727027 54.2587013,41.3124324 55.4155844,42.5610811 C55.5745455,42.7305405 55.6275325,42.8464865 55.6363636,42.8286486 C55.6363636,42.8375676 55.5833766,42.9267568 55.4597403,43.0516216 Z" id="Shape"></path>
                    </g>
                </g>
            </g>
        </g>
    </g>
</svg>