<?xml version="1.0" encoding="UTF-8"?>
<svg width="75px" height="75px" viewBox="0 0 75 75" version="1.1" xmlns="http://www.w3.org/2000/svg" xmlns:xlink="http://www.w3.org/1999/xlink">
    <!-- Generator: Sketch 61.2 (89653) - https://sketch.com -->
    <title>Group</title>
    <desc>Created with Sketch.</desc>
    <g id="Page-1" stroke="none" stroke-width="1" fill="none" fill-rule="evenodd" opacity="0.753952753">
        <g id="ðŸ HOME" transform="translate(-689.000000, -3302.000000)" fill="#64B5BF">
            <g id="Group-12" transform="translate(0.000000, 3273.000000)">
                <g id="noun_hour_2189506" transform="translate(689.000000, 29.000000)">
                    <g id="Group">
                        <path d="M37.2880309,0 C57.8814672,0 74.5760618,16.6945946 74.5760618,37.2880309 C74.5760618,57.8814672 57.8814672,74.5760618 37.2880309,74.5760618 C16.6945946,74.5760618 0,57.8814672 0,37.2880309 C0,16.6945946 16.6945946,0 37.2880309,0 Z M37.2880309,2.94208494 C18.3196911,2.94208494 2.94208494,18.3196911 2.94208494,37.2880309 C2.94208494,56.2563707 18.3196911,71.6339768 37.2880309,71.6339768 C56.2563707,71.6339768 71.6339768,56.2563707 71.6339768,37.2880309 C71.6339768,18.3196911 56.2563707,2.94208494 37.2880309,2.94208494 Z" id="Shape" fill-rule="nonzero"></path>
                        <path d="M59.9837838,59.9837838 C49.6343629,70.3332046 33.9776062,72.1343629 21.7772201,65.3930502 C8.88416988,58.4235521 2.5019305,43.1003861 6.28494208,28.980695 C10.7223938,12.4204633 27.3301158,2.37335907 43.907722,5.88185328 C46.0042471,6.24787645 45.4285714,9.27220077 43.296139,8.75907336 C28.2405405,5.57374517 13.1571429,14.7011583 9.12625483,29.7416988 C5.57837838,42.984556 11.7833977,56.807722 23.653668,63.0660232 C35.0281853,68.8818533 48.6081081,67.1988417 57.9034749,57.9034749 C68.9142857,46.8926641 69.276834,29.2667954 58.9911197,17.8204633 C57.4795367,16.2301158 59.8111969,14.219305 61.176834,15.8525097 C72.503861,28.4548263 72.1065637,47.8610039 59.9837838,59.9837838 L59.9837838,59.9837838 Z" id="Path" fill-rule="nonzero"></path>
                        <path d="M38.7590734,33.5861004 C40.2625483,34.1849421 41.2725869,35.6525097 41.2725869,37.2880309 C41.2725869,39.4830116 39.4818533,41.2725869 37.2880309,41.2725869 C35.6525097,41.2725869 34.1849421,40.2625483 33.5861004,38.7590734 L22.5683398,38.7590734 C21.7598456,38.7590734 21.0972973,38.0976834 21.0972973,37.2880309 C21.0972973,36.4783784 21.7586873,35.8169884 22.5683398,35.8169884 L33.5861004,35.8169884 C33.9891892,34.8034749 34.8034749,33.9891892 35.8169884,33.5861004 L35.8169884,19.1965251 C35.8169884,18.3868726 36.4783784,17.7254826 37.2880309,17.7254826 C38.0976834,17.7254826 38.7590734,18.3868726 38.7590734,19.1965251 L38.7590734,33.5861004 L38.7590734,33.5861004 Z M37.2880309,36.2455598 C36.7042471,36.2455598 36.2455598,36.7042471 36.2455598,37.2880309 C36.2455598,37.8718147 36.7042471,38.3305019 37.2880309,38.3305019 C37.8718147,38.3305019 38.3305019,37.8718147 38.3305019,37.2880309 C38.3305019,36.7042471 37.8718147,36.2455598 37.2880309,36.2455598 Z" id="Shape" fill-rule="nonzero"></path>
                        <path d="M37.2880309,10.4467181 C38.0976834,10.4467181 38.7590734,11.1081081 38.7590734,11.9177606 L38.7590734,14.1857143 C38.7590734,14.9953668 38.0976834,15.6567568 37.2880309,15.6567568 C36.4783784,15.6567568 35.8169884,14.9953668 35.8169884,14.1857143 L35.8169884,11.9177606 C35.8169884,11.1081081 36.4783784,10.4467181 37.2880309,10.4467181 Z" id="Path"></path>
                        <path d="M56.2679537,18.3081081 C56.8401544,18.8803089 56.8401544,19.8162162 56.2679537,20.388417 L54.6637066,21.9926641 C54.0915058,22.5648649 53.1555985,22.5648649 52.5833977,21.9926641 C52.0111969,21.4204633 52.0111969,20.484556 52.5833977,19.9123552 L54.1876448,18.3081081 C54.7598456,17.7359073 55.6957529,17.7359073 56.2679537,18.3081081 Z" id="Path"></path>
                        <path d="M64.1293436,37.2880309 C64.1293436,38.0976834 63.4679537,38.7590734 62.6583012,38.7590734 L60.3903475,38.7590734 C59.580695,38.7590734 58.919305,38.0976834 58.919305,37.2880309 C58.919305,36.4783784 59.580695,35.8169884 60.3903475,35.8169884 L62.6583012,35.8169884 C63.4679537,35.8169884 64.1293436,36.4783784 64.1293436,37.2880309 Z" id="Path"></path>
                        <path d="M56.2679537,56.2679537 C55.6957529,56.8401544 54.7598456,56.8401544 54.1876448,56.2679537 L52.5833977,54.6637066 C52.0111969,54.0915058 52.0111969,53.1555985 52.5833977,52.5833977 C53.1555985,52.0111969 54.0915058,52.0111969 54.6637066,52.5833977 L56.2679537,54.1876448 C56.8401544,54.7598456 56.8401544,55.6957529 56.2679537,56.2679537 Z" id="Path"></path>
                        <path d="M37.2880309,64.1293436 C36.4783784,64.1293436 35.8169884,63.4679537 35.8169884,62.6583012 L35.8169884,60.3903475 C35.8169884,59.580695 36.4783784,58.919305 37.2880309,58.919305 C38.0976834,58.919305 38.7590734,59.580695 38.7590734,60.3903475 L38.7590734,62.6583012 C38.7590734,63.4679537 38.0976834,64.1293436 37.2880309,64.1293436 Z" id="Path"></path>
                        <path d="M18.3081081,56.2679537 C17.7359073,55.6957529 17.7359073,54.7598456 18.3081081,54.1876448 L19.9123552,52.5833977 C20.484556,52.0111969 21.4204633,52.0111969 21.9926641,52.5833977 C22.5648649,53.1555985 22.5648649,54.0915058 21.9926641,54.6637066 L20.388417,56.2679537 C19.8162162,56.8401544 18.8803089,56.8401544 18.3081081,56.2679537 Z" id="Path"></path>
                        <path d="M10.4467181,37.2880309 C10.4467181,36.4783784 11.1081081,35.8169884 11.9177606,35.8169884 L14.1857143,35.8169884 C14.9953668,35.8169884 15.6567568,36.4783784 15.6567568,37.2880309 C15.6567568,38.0976834 14.9953668,38.7590734 14.1857143,38.7590734 L11.9177606,38.7590734 C11.1081081,38.7590734 10.4467181,38.0976834 10.4467181,37.2880309 Z" id="Path"></path>
                        <path d="M18.3081081,18.3081081 C18.8803089,17.7359073 19.8162162,17.7359073 20.388417,18.3081081 L21.9926641,19.9123552 C22.5648649,20.484556 22.5648649,21.4204633 21.9926641,21.9926641 C21.4204633,22.5648649 20.484556,22.5648649 19.9123552,21.9926641 L18.3081081,20.388417 C17.7359073,19.8162162 17.7359073,18.8803089 18.3081081,18.3081081 Z" id="Path"></path>
                    </g>
                </g>
            </g>
        </g>
    </g>
</svg>